{
  "asset": {
    "generator": "Khronos glTF Blender I/O v3.6.27",
    "version": "2.0"
  },
  "scene": 0,
  "scenes": [
    {
      "name": "Scene",
      "nodes": [
        1,
        2
      ]
    }
  ],
  "nodes": [
    {
      "mesh": 0,
      "name": "Sphere.001",
      "rotation": [
        -0.25246497988700867,
        0.2685617506504059,
        0.6899401545524597,
        0.622991681098938
      ],
      "scale": [
        0.9832026958465576,
        0.6968251466751099,
        0.9829935431480408
      ],
      "translation": [
        -2.0263285636901855,
        -0.3452184200286865,
        0.8062769174575806
      ]
    },
    {
      "children": [
        0
      ],
      "name": "NurbsPath.002",
      "rotation": [
        0,
        0.6162519454956055,
        0,
        0.7875491976737976
      ],
      "scale": [
        1.4423147439956665,
        1,
        1.0326181650161743
      ],
      "translation": [
        0,
        1.804387092590332,
        -3.2725815773010254
      ]
    },
    {
      "mesh": 1,
      "name": "Sphere",
      "scale": [
        2,
        2,
        2
      ],
      "translation": [
        0,
        -4.695743560791016,
        0.2557868957519531
      ]
    }
  ],
  "animations": [
    {
      "channels": [
        {
          "sampler": 0,
          "target": {
            "node": 1,
            "path": "translation"
          }
        },
        {
          "sampler": 1,
          "target": {
            "node": 1,
            "path": "rotation"
          }
        },
        {
          "sampler": 2,
          "target": {
            "node": 1,
            "path": "scale"
          }
        }
      ],
      "name": "Action.012",
      "samplers": [
        {
          "input": 18,
          "interpolation": "STEP",
          "output": 19
        },
        {
          "input": 18,
          "interpolation": "STEP",
          "output": 20
        },
        {
          "input": 18,
          "interpolation": "STEP",
          "output": 21
        }
      ]
    },
    {
      "channels": [
        {
          "sampler": 0,
          "target": {
            "node": 0,
            "path": "translation"
          }
        },
        {
          "sampler": 1,
          "target": {
            "node": 0,
            "path": "rotation"
          }
        },
        {
          "sampler": 2,
          "target": {
            "node": 0,
            "path": "scale"
          }
        }
      ],
      "name": "movimiento",
      "samplers": [
        {
          "input": 22,
          "interpolation": "LINEAR",
          "output": 23
        },
        {
          "input": 22,
          "interpolation": "LINEAR",
          "output": 24
        },
        {
          "input": 18,
          "interpolation": "LINEAR",
          "output": 25
        }
      ]
    },
    {
      "channels": [
        {
          "sampler": 0,
          "target": {
            "node": 2,
            "path": "translation"
          }
        },
        {
          "sampler": 1,
          "target": {
            "node": 2,
            "path": "rotation"
          }
        },
        {
          "sampler": 2,
          "target": {
            "node": 2,
            "path": "scale"
          }
        }
      ],
      "name": "Action.007",
      "samplers": [
        {
          "input": 18,
          "interpolation": "STEP",
          "output": 26
        },
        {
          "input": 18,
          "interpolation": "STEP",
          "output": 27
        },
        {
          "input": 18,
          "interpolation": "STEP",
          "output": 28
        }
      ]
    }
  ],
  "materials": [
    {
      "doubleSided": true,
      "name": "Material.002",
      "pbrMetallicRoughness": {
        "baseColorFactor": [
          0.6000000238418579,
          0.4000000059604645,
          0.30000001192092896,
          1
        ],
        "roughnessFactor": 0.5
      }
    },
    {
      "doubleSided": true,
      "name": "bola.001",
      "pbrMetallicRoughness": {
        "baseColorFactor": [
          0.6000000238418579,
          0.6000000238418579,
          0.6000000238418579,
          1
        ],
        "roughnessFactor": 0.5
      }
    },
    {
      "doubleSided": true,
      "name": "Material.005",
      "pbrMetallicRoughness": {
        "baseColorFactor": [
          0,
          0.800000011920929,
          0.800000011920929,
          1
        ],
        "metallicFactor": 0,
        "roughnessFactor": 0.5
      }
    },
    {
      "doubleSided": true,
      "name": "Material.003",
      "pbrMetallicRoughness": {
        "baseColorFactor": [
          0,
          0.800000011920929,
          0.800000011920929,
          1
        ],
        "metallicFactor": 0,
        "roughnessFactor": 0.5
      }
    },
    {
      "doubleSided": true,
      "name": "Material.001",
      "pbrMetallicRoughness": {
        "baseColorFactor": [
          1,
          0.0020759636536240578,
          0.037293579429388046,
          1
        ],
        "metallicFactor": 0,
        "roughnessFactor": 0.5
      }
    }
  ],
  "meshes": [
    {
      "name": "Sphere.001",
      "primitives": [
        {
          "attributes": {
            "POSITION": 0,
            "NORMAL": 1,
            "TEXCOORD_0": 2
          },
          "indices": 3,
          "material": 0
        },
        {
          "attributes": {
            "POSITION": 4,
            "NORMAL": 5,
            "TEXCOORD_0": 6
          },
          "indices": 7,
          "material": 1
        },
        {
          "attributes": {
            "POSITION": 8,
            "NORMAL": 9,
            "TEXCOORD_0": 10
          },
          "indices": 3,
          "material": 2
        },
        {
          "attributes": {
            "POSITION": 11,
            "NORMAL": 12,
            "TEXCOORD_0": 13
          },
          "indices": 3,
          "material": 3
        }
      ]
    },
    {
      "name": "Sphere",
      "primitives": [
        {
          "attributes": {
            "POSITION": 14,
            "NORMAL": 15,
            "TEXCOORD_0": 16
          },
          "indices": 17,
          "material": 4
        }
      ]
    }
  ],
  "accessors": [
    {
      "bufferView": 0,
      "componentType": 5126,
      "count": 195,
      "max": [
        0.10550815612077713,
        1.7037242650985718,
        0.07254108786582947
      ],
      "min": [
        -0.09436088055372238,
        0.47951754927635193,
        -0.12684188783168793
      ],
      "type": "VEC3"
    },
    {
      "bufferView": 1,
      "componentType": 5126,
      "count": 195,
      "type": "VEC3"
    },
    {
      "bufferView": 2,
      "componentType": 5126,
      "count": 195,
      "type": "VEC2"
    },
    {
      "bufferView": 3,
      "componentType": 5123,
      "count": 558,
      "type": "SCALAR"
    },
    {
      "bufferView": 4,
      "componentType": 5126,
      "count": 559,
      "max": [
        0.7934466600418091,
        0.855841875076294,
        0.7352362275123596
      ],
      "min": [
        -0.2053891122341156,
        -0.13935843110084534,
        -0.26281023025512695
      ],
      "type": "VEC3"
    },
    {
      "bufferView": 5,
      "componentType": 5126,
      "count": 559,
      "type": "VEC3"
    },
    {
      "bufferView": 6,
      "componentType": 5126,
      "count": 559,
      "type": "VEC2"
    },
    {
      "bufferView": 7,
      "componentType": 5123,
      "count": 2880,
      "type": "SCALAR"
    },
    {
      "bufferView": 8,
      "componentType": 5126,
      "count": 195,
      "max": [
        1.459977626800537,
        0.3187282681465149,
        1.3772835731506348
      ],
      "min": [
        0.5605750679969788,
        0.047744542360305786,
        0.5255215764045715
      ],
      "type": "VEC3"
    },
    {
      "bufferView": 9,
      "componentType": 5126,
      "count": 195,
      "type": "VEC3"
    },
    {
      "bufferView": 10,
      "componentType": 5126,
      "count": 195,
      "type": "VEC2"
    },
    {
      "bufferView": 11,
      "componentType": 5126,
      "count": 195,
      "max": [
        0.01512843370437622,
        0.5824017524719238,
        -0.02845609188079834
      ],
      "min": [
        -0.8767920136451721,
        0.3444331884384155,
        -0.890883207321167
      ],
      "type": "VEC3"
    },
    {
      "bufferView": 12,
      "componentType": 5126,
      "count": 195,
      "type": "VEC3"
    },
    {
      "bufferView": 13,
      "componentType": 5126,
      "count": 195,
      "type": "VEC2"
    },
    {
      "bufferView": 14,
      "componentType": 5126,
      "count": 992,
      "max": [
        2.9999990463256836,
        3,
        2.999998092651367
      ],
      "min": [
        -2.99999737739563,
        0,
        -3
      ],
      "type": "VEC3"
    },
    {
      "bufferView": 15,
      "componentType": 5126,
      "count": 992,
      "type": "VEC3"
    },
    {
      "bufferView": 16,
      "componentType": 5126,
      "count": 992,
      "type": "VEC2"
    },
    {
      "bufferView": 17,
      "componentType": 5123,
      "count": 1440,
      "type": "SCALAR"
    },
    {
      "bufferView": 18,
      "componentType": 5126,
      "count": 2,
      "max": [
        4.583333333333333
      ],
      "min": [
        0
      ],
      "type": "SCALAR"
    },
    {
      "bufferView": 19,
      "componentType": 5126,
      "count": 2,
      "type": "VEC3"
    },
    {
      "bufferView": 20,
      "componentType": 5126,
      "count": 2,
      "type": "VEC4"
    },
    {
      "bufferView": 21,
      "componentType": 5126,
      "count": 2,
      "type": "VEC3"
    },
    {
      "bufferView": 22,
      "componentType": 5126,
      "count": 111,
      "max": [
        4.583333333333333
      ],
      "min": [
        0
      ],
      "type": "SCALAR"
    },
    {
      "bufferView": 23,
      "componentType": 5126,
      "count": 111,
      "type": "VEC3"
    },
    {
      "bufferView": 24,
      "componentType": 5126,
      "count": 111,
      "type": "VEC4"
    },
    {
      "bufferView": 25,
      "componentType": 5126,
      "count": 2,
      "type": "VEC3"
    },
    {
      "bufferView": 26,
      "componentType": 5126,
      "count": 2,
      "type": "VEC3"
    },
    {
      "bufferView": 27,
      "componentType": 5126,
      "count": 2,
      "type": "VEC4"
    },
    {
      "bufferView": 28,
      "componentType": 5126,
      "count": 2,
      "type": "VEC3"
    }
  ],
  "bufferViews": [
    {
      "buffer": 0,
      "byteLength": 2340,
      "byteOffset": 0,
      "target": 34962
    },
    {
      "buffer": 0,
      "byteLength": 2340,
      "byteOffset": 2340,
      "target": 34962
    },
    {
      "buffer": 0,
      "byteLength": 1560,
      "byteOffset": 4680,
      "target": 34962
    },
    {
      "buffer": 0,
      "byteLength": 1116,
      "byteOffset": 6240,
      "target": 34963
    },
    {
      "buffer": 0,
      "byteLength": 6708,
      "byteOffset": 7356,
      "target": 34962
    },
    {
      "buffer": 0,
      "byteLength": 6708,
      "byteOffset": 14064,
      "target": 34962
    },
    {
      "buffer": 0,
      "byteLength": 4472,
      "byteOffset": 20772,
      "target": 34962
    },
    {
      "buffer": 0,
      "byteLength": 5760,
      "byteOffset": 25244,
      "target": 34963
    },
    {
      "buffer": 0,
      "byteLength": 2340,
      "byteOffset": 31004,
      "target": 34962
    },
    {
      "buffer": 0,
      "byteLength": 2340,
      "byteOffset": 33344,
      "target": 34962
    },
    {
      "buffer": 0,
      "byteLength": 1560,
      "byteOffset": 35684,
      "target": 34962
    },
    {
      "buffer": 0,
      "byteLength": 2340,
      "byteOffset": 37244,
      "target": 34962
    },
    {
      "buffer": 0,
      "byteLength": 2340,
      "byteOffset": 39584,
      "target": 34962
    },
    {
      "buffer": 0,
      "byteLength": 1560,
      "byteOffset": 41924,
      "target": 34962
    },
    {
      "buffer": 0,
      "byteLength": 11904,
      "byteOffset": 43484,
      "target": 34962
    },
    {
      "buffer": 0,
      "byteLength": 11904,
      "byteOffset": 55388,
      "target": 34962
    },
    {
      "buffer": 0,
      "byteLength": 7936,
      "byteOffset": 67292,
      "target": 34962
    },
    {
      "buffer": 0,
      "byteLength": 2880,
      "byteOffset": 75228,
      "target": 34963
    },
    {
      "buffer": 0,
      "byteLength": 8,
      "byteOffset": 78108
    },
    {
      "buffer": 0,
      "byteLength": 24,
      "byteOffset": 78116
    },
    {
      "buffer": 0,
      "byteLength": 32,
      "byteOffset": 78140
    },
    {
      "buffer": 0,
      "byteLength": 24,
      "byteOffset": 78172
    },
    {
      "buffer": 0,
      "byteLength": 444,
      "byteOffset": 78196
    },
    {
      "buffer": 0,
      "byteLength": 1332,
      "byteOffset": 78640
    },
    {
      "buffer": 0,
      "byteLength": 1776,
      "byteOffset": 79972
    },
    {
      "buffer": 0,
      "byteLength": 24,
      "byteOffset": 81748
    },
    {
      "buffer": 0,
      "byteLength": 24,
      "byteOffset": 81772
    },
    {
      "buffer": 0,
      "byteLength": 32,
      "byteOffset": 81796
    },
    {
      "buffer": 0,
      "byteLength": 24,
      "byteOffset": 81828
    }
  ],
  "buffers": [
    {
      "uri": "cupula_new_data.bin",
      "byteLength": 81852
    }
  ]
}